# Blender v2.79 (sub 0) OBJ File: ''
# www.blender.org
mtllib torus.mtl
o Torus
v 1.250000 0.000000 0.000000
v 1.176777 0.176777 0.000000
v 1.000000 0.250000 0.000000
v 0.823223 0.176777 0.000000
v 0.750000 0.000000 0.000000
v 0.823223 -0.176777 0.000000
v 1.000000 -0.250000 0.000000
v 1.176777 -0.176777 0.000000
v 1.051567 0.000000 -0.675801
v 0.989968 0.176777 -0.636213
v 0.841254 0.250000 -0.540641
v 0.692540 0.176777 -0.445068
v 0.630940 0.000000 -0.405481
v 0.692540 -0.176777 -0.445068
v 0.841254 -0.250000 -0.540641
v 0.989968 -0.176777 -0.636213
v 0.519269 0.000000 -1.137040
v 0.488851 0.176777 -1.070434
v 0.415415 0.250000 -0.909632
v 0.341979 0.176777 -0.748830
v 0.311561 0.000000 -0.682224
v 0.341979 -0.176777 -0.748830
v 0.415415 -0.250000 -0.909632
v 0.488851 -0.176777 -1.070434
v -0.177894 0.000000 -1.237277
v -0.167473 0.176777 -1.164799
v -0.142315 0.250000 -0.989821
v -0.117157 0.176777 -0.814844
v -0.106736 0.000000 -0.742366
v -0.117157 -0.176777 -0.814844
v -0.142315 -0.250000 -0.989821
v -0.167473 -0.176777 -1.164799
v -0.818576 0.000000 -0.944687
v -0.770625 0.176777 -0.889349
v -0.654861 0.250000 -0.755750
v -0.539097 0.176777 -0.622151
v -0.491145 0.000000 -0.566812
v -0.539097 -0.176777 -0.622151
v -0.654861 -0.250000 -0.755750
v -0.770625 -0.176777 -0.889349
v -1.199366 0.000000 -0.352165
v -1.129109 0.176777 -0.331536
v -0.959493 0.250000 -0.281732
v -0.789877 0.176777 -0.231929
v -0.719620 0.000000 -0.211299
v -0.789877 -0.176777 -0.231929
v -0.959493 -0.250000 -0.281732
v -1.129109 -0.176777 -0.331536
v -1.199366 0.000000 0.352165
v -1.129109 0.176777 0.331536
v -0.959493 0.250000 0.281732
v -0.789877 0.176777 0.231929
v -0.719620 0.000000 0.211299
v -0.789877 -0.176777 0.231929
v -0.959493 -0.250000 0.281732
v -1.129109 -0.176777 0.331536
v -0.818576 0.000000 0.944687
v -0.770625 0.176777 0.889348
v -0.654861 0.250000 0.755749
v -0.539097 0.176777 0.622150
v -0.491146 0.000000 0.566812
v -0.539097 -0.176777 0.622150
v -0.654861 -0.250000 0.755749
v -0.770625 -0.176777 0.889348
v -0.177894 0.000000 1.237277
v -0.167473 0.176777 1.164799
v -0.142315 0.250000 0.989821
v -0.117157 0.176777 0.814844
v -0.106737 0.000000 0.742366
v -0.117157 -0.176777 0.814844
v -0.142315 -0.250000 0.989821
v -0.167473 -0.176777 1.164799
v 0.519269 0.000000 1.137040
v 0.488851 0.176777 1.070434
v 0.415415 0.250000 0.909632
v 0.341979 0.176777 0.748830
v 0.311561 0.000000 0.682224
v 0.341979 -0.176777 0.748830
v 0.415415 -0.250000 0.909632
v 0.488851 -0.176777 1.070434
v 1.051567 0.000000 0.675801
v 0.989968 0.176777 0.636213
v 0.841254 0.250000 0.540641
v 0.692540 0.176777 0.445068
v 0.630940 0.000000 0.405481
v 0.692540 -0.176777 0.445068
v 0.841254 -0.250000 0.540641
v 0.989968 -0.176777 0.636213
vn 0.8917 0.3693 -0.2618
vn 0.3803 0.9181 -0.1117
vn -0.3803 0.9181 0.1117
vn -0.8917 0.3693 0.2618
vn -0.8917 -0.3693 0.2618
vn -0.3803 -0.9181 0.1117
vn 0.3803 -0.9181 -0.1117
vn 0.8917 -0.3693 -0.2618
vn 0.6086 0.3693 -0.7023
vn 0.2596 0.9181 -0.2995
vn -0.2596 0.9181 0.2995
vn -0.6086 0.3693 0.7023
vn -0.6086 -0.3693 0.7023
vn -0.2596 -0.9181 0.2995
vn 0.2596 -0.9181 -0.2995
vn 0.6086 -0.3693 -0.7023
vn 0.1323 0.3693 -0.9198
vn 0.0564 0.9181 -0.3923
vn -0.0564 0.9181 0.3923
vn -0.1323 0.3693 0.9198
vn -0.1323 -0.3693 0.9198
vn -0.0564 -0.9181 0.3923
vn 0.0564 -0.9181 -0.3923
vn 0.1323 -0.3693 -0.9198
vn -0.3860 0.3693 -0.8453
vn -0.1646 0.9181 -0.3605
vn 0.1646 0.9181 0.3605
vn 0.3860 0.3693 0.8453
vn 0.3860 -0.3693 0.8453
vn 0.1646 -0.9181 0.3605
vn -0.1646 -0.9181 -0.3605
vn -0.3860 -0.3693 -0.8453
vn -0.7818 0.3693 -0.5024
vn -0.3334 0.9181 -0.2143
vn 0.3334 0.9181 0.2143
vn 0.7818 0.3693 0.5024
vn 0.7818 -0.3693 0.5024
vn 0.3334 -0.9181 0.2143
vn -0.3334 -0.9181 -0.2143
vn -0.7818 -0.3693 -0.5024
vn -0.9293 0.3693 0.0000
vn -0.3963 0.9181 0.0000
vn 0.3963 0.9181 0.0000
vn 0.9293 0.3693 0.0000
vn 0.9293 -0.3693 0.0000
vn 0.3963 -0.9181 0.0000
vn -0.3963 -0.9181 0.0000
vn -0.9293 -0.3693 0.0000
vn -0.7818 0.3693 0.5024
vn -0.3334 0.9181 0.2143
vn 0.3334 0.9181 -0.2143
vn 0.7818 0.3693 -0.5024
vn 0.7818 -0.3693 -0.5024
vn 0.3334 -0.9181 -0.2143
vn -0.3334 -0.9181 0.2143
vn -0.7818 -0.3693 0.5024
vn -0.3860 0.3693 0.8453
vn -0.1646 0.9181 0.3605
vn 0.1646 0.9181 -0.3605
vn 0.3860 0.3693 -0.8453
vn 0.3860 -0.3693 -0.8453
vn 0.1646 -0.9181 -0.3605
vn -0.1646 -0.9181 0.3605
vn -0.3860 -0.3693 0.8453
vn 0.1323 0.3693 0.9198
vn 0.0564 0.9181 0.3923
vn -0.0564 0.9181 -0.3923
vn -0.1323 0.3693 -0.9198
vn -0.1323 -0.3693 -0.9198
vn -0.0564 -0.9181 -0.3923
vn 0.0564 -0.9181 0.3923
vn 0.1323 -0.3693 0.9198
vn 0.6086 0.3693 0.7023
vn 0.2596 0.9181 0.2995
vn -0.2596 0.9181 -0.2995
vn -0.6086 0.3693 -0.7023
vn -0.6086 -0.3693 -0.7023
vn -0.2596 -0.9181 -0.2995
vn 0.2596 -0.9181 0.2995
vn 0.6086 -0.3693 0.7023
vn 0.8917 0.3693 0.2618
vn 0.3803 0.9181 0.1117
vn -0.3803 0.9181 -0.1117
vn -0.8917 0.3693 -0.2618
vn -0.8917 -0.3693 -0.2618
vn -0.3803 -0.9181 -0.1117
vn 0.3803 -0.9181 0.1117
vn 0.8917 -0.3693 0.2618
usemtl None
s off
f 1//1 10//1 2//1
f 10//2 3//2 2//2
f 11//3 4//3 3//3
f 12//4 5//4 4//4
f 13//5 6//5 5//5
f 14//6 7//6 6//6
f 7//7 16//7 8//7
f 16//8 1//8 8//8
f 9//9 18//9 10//9
f 18//10 11//10 10//10
f 19//11 12//11 11//11
f 12//12 21//12 13//12
f 21//13 14//13 13//13
f 22//14 15//14 14//14
f 15//15 24//15 16//15
f 24//16 9//16 16//16
f 17//17 26//17 18//17
f 26//18 19//18 18//18
f 19//19 28//19 20//19
f 20//20 29//20 21//20
f 29//21 22//21 21//21
f 30//22 23//22 22//22
f 31//23 24//23 23//23
f 32//24 17//24 24//24
f 25//25 34//25 26//25
f 34//26 27//26 26//26
f 27//27 36//27 28//27
f 36//28 29//28 28//28
f 29//29 38//29 30//29
f 38//30 31//30 30//30
f 39//31 32//31 31//31
f 40//32 25//32 32//32
f 33//33 42//33 34//33
f 34//34 43//34 35//34
f 35//35 44//35 36//35
f 44//36 37//36 36//36
f 45//37 38//37 37//37
f 46//38 39//38 38//38
f 47//39 40//39 39//39
f 48//40 33//40 40//40
f 49//41 42//41 41//41
f 50//42 43//42 42//42
f 51//43 44//43 43//43
f 52//44 45//44 44//44
f 53//45 46//45 45//45
f 54//46 47//46 46//46
f 55//47 48//47 47//47
f 56//48 41//48 48//48
f 57//49 50//49 49//49
f 50//50 59//50 51//50
f 59//51 52//51 51//51
f 60//52 53//52 52//52
f 61//53 54//53 53//53
f 62//54 55//54 54//54
f 63//55 56//55 55//55
f 56//56 57//56 49//56
f 65//57 58//57 57//57
f 58//58 67//58 59//58
f 67//59 60//59 59//59
f 60//60 69//60 61//60
f 69//61 62//61 61//61
f 70//62 63//62 62//62
f 71//63 64//63 63//63
f 64//64 65//64 57//64
f 65//65 74//65 66//65
f 74//66 67//66 66//66
f 75//67 68//67 67//67
f 76//68 69//68 68//68
f 69//69 78//69 70//69
f 70//70 79//70 71//70
f 71//71 80//71 72//71
f 80//72 65//72 72//72
f 81//73 74//73 73//73
f 74//74 83//74 75//74
f 83//75 76//75 75//75
f 84//76 77//76 76//76
f 77//77 86//77 78//77
f 86//78 79//78 78//78
f 87//79 80//79 79//79
f 80//80 81//80 73//80
f 1//81 82//81 81//81
f 82//82 3//82 83//82
f 3//83 84//83 83//83
f 4//84 85//84 84//84
f 5//85 86//85 85//85
f 6//86 87//86 86//86
f 7//87 88//87 87//87
f 88//88 1//88 81//88
f 1//1 9//1 10//1
f 10//2 11//2 3//2
f 11//3 12//3 4//3
f 12//4 13//4 5//4
f 13//5 14//5 6//5
f 14//6 15//6 7//6
f 7//7 15//7 16//7
f 16//8 9//8 1//8
f 9//9 17//9 18//9
f 18//10 19//10 11//10
f 19//11 20//11 12//11
f 12//12 20//12 21//12
f 21//13 22//13 14//13
f 22//14 23//14 15//14
f 15//15 23//15 24//15
f 24//16 17//16 9//16
f 17//17 25//17 26//17
f 26//18 27//18 19//18
f 19//19 27//19 28//19
f 20//20 28//20 29//20
f 29//21 30//21 22//21
f 30//22 31//22 23//22
f 31//23 32//23 24//23
f 32//24 25//24 17//24
f 25//25 33//25 34//25
f 34//26 35//26 27//26
f 27//27 35//27 36//27
f 36//28 37//28 29//28
f 29//29 37//29 38//29
f 38//30 39//30 31//30
f 39//31 40//31 32//31
f 40//32 33//32 25//32
f 33//33 41//33 42//33
f 34//34 42//34 43//34
f 35//35 43//35 44//35
f 44//36 45//36 37//36
f 45//37 46//37 38//37
f 46//38 47//38 39//38
f 47//39 48//39 40//39
f 48//40 41//40 33//40
f 49//41 50//41 42//41
f 50//42 51//42 43//42
f 51//43 52//43 44//43
f 52//44 53//44 45//44
f 53//45 54//45 46//45
f 54//46 55//46 47//46
f 55//47 56//47 48//47
f 56//48 49//48 41//48
f 57//49 58//49 50//49
f 50//50 58//50 59//50
f 59//51 60//51 52//51
f 60//52 61//52 53//52
f 61//53 62//53 54//53
f 62//54 63//54 55//54
f 63//55 64//55 56//55
f 56//56 64//56 57//56
f 65//57 66//57 58//57
f 58//58 66//58 67//58
f 67//59 68//59 60//59
f 60//60 68//60 69//60
f 69//61 70//61 62//61
f 70//62 71//62 63//62
f 71//63 72//63 64//63
f 64//64 72//64 65//64
f 65//65 73//65 74//65
f 74//66 75//66 67//66
f 75//67 76//67 68//67
f 76//68 77//68 69//68
f 69//69 77//69 78//69
f 70//70 78//70 79//70
f 71//71 79//71 80//71
f 80//72 73//72 65//72
f 81//73 82//73 74//73
f 74//74 82//74 83//74
f 83//75 84//75 76//75
f 84//76 85//76 77//76
f 77//77 85//77 86//77
f 86//78 87//78 79//78
f 87//79 88//79 80//79
f 80//80 88//80 81//80
f 1//81 2//81 82//81
f 82//82 2//82 3//82
f 3//83 4//83 84//83
f 4//84 5//84 85//84
f 5//85 6//85 86//85
f 6//86 7//86 87//86
f 7//87 8//87 88//87
f 88//88 8//88 1//88
