# Blender v2.92.0 OBJ File: 'tunnel_01.blend'
# www.blender.org
mtllib tunnel_02.mtl
o Plane
v -102.498672 -1.000000 122.779510
v 102.498672 -1.000000 122.779510
v -102.498672 -1.000000 -122.779510
v 102.498672 -1.000000 -122.779510
vt 0.000000 0.000000
vt 1.000000 0.000000
vt 1.000000 1.000000
vt 0.000000 1.000000
vn 0.0000 1.0000 0.0000
usemtl None
s off
f 1/1/1 2/2/1 4/3/1 3/4/1
o Cube_Cube.002
v 18.126194 -1.418495 17.630045
v 18.126194 3.018495 17.630045
v 18.126194 -1.418495 -17.630045
v 18.126194 3.018495 -17.630045
v 21.873806 -1.418495 17.630045
v 21.873806 3.018495 17.630045
v 21.873806 -1.418495 -17.630045
v 21.873806 3.018495 -17.630045
v 19.014421 -1.418495 17.630045
v 19.014421 -1.418495 -12.011065
v 19.014421 -1.418495 -17.630045
v 20.967155 1.365098 -17.630045
v 20.967155 -1.418495 -17.630045
v 20.967155 1.530662 -17.630045
v 19.103184 1.530662 -17.630045
v 19.014421 1.530662 -17.630045
v 20.967155 -1.418495 17.630045
v 19.014421 1.365097 17.630045
v 20.967155 1.530661 17.630045
v 20.878395 1.530661 17.630045
v 19.014421 1.530661 17.630045
v 20.967155 -1.418495 12.011060
vt 0.375000 0.000000
vt 0.625000 0.000000
vt 0.625000 0.250000
vt 0.375000 0.250000
vt 0.375000 0.500000
vt 0.625000 0.500000
vt 0.625000 0.750000
vt 0.375000 0.750000
vt 0.875000 0.500000
vt 0.875000 0.750000
vt 0.000000 0.000000
vt 0.000000 0.000000
vt 0.000000 0.000000
vt 0.000000 0.000000
vt 0.000000 0.000000
vt 0.000000 0.000000
vt 0.000000 0.000000
vt 0.000000 0.000000
vt 0.000000 0.000000
vt 0.000000 0.000000
vt 0.000000 0.000000
vt 0.000000 0.000000
vt 0.000000 0.000000
vt 0.000000 0.000000
vt 0.125000 0.750000
vt 0.125000 0.500000
vt 0.184253 0.500000
vt 0.184253 0.539839
vt 0.184253 0.750000
vt 0.375000 0.439518
vt 0.531840 0.439518
vt 0.541169 0.439518
vt 0.541169 0.315174
vt 0.541169 0.309253
vt 0.375000 0.309253
vt 0.375000 0.810482
vt 0.625000 1.000000
vt 0.375000 1.000000
vt 0.375000 0.940747
vt 0.531840 0.940747
vt 0.541169 0.940747
vt 0.541169 0.816403
vt 0.541169 0.810482
vt 0.314518 0.500000
vt 0.314518 0.750000
vt 0.314518 0.710160
vn -1.0000 0.0000 0.0000
vn 1.0000 0.0000 0.0000
vn 0.0000 1.0000 0.0000
vn 0.0000 -1.0000 -0.0000
vn -0.0000 0.0000 -1.0000
vn 0.0000 0.0000 1.0000
usemtl None
s off
f 5/5/2 6/6/2 8/7/2 7/8/2
f 11/9/3 12/10/3 10/11/3 9/12/3
f 12/10/4 8/13/4 6/14/4 10/11/4
f 13/15/3 14/16/3 22/17/3
f 23/18/2 18/19/2 16/20/2 26/21/2 21/22/2
f 20/23/5 19/24/5 24/25/5 25/26/5
f 14/16/3 15/27/3 20/23/3 25/26/3 22/17/3
f 17/28/2 26/21/2 16/20/2
f 18/19/5 23/18/5 24/25/5 19/24/5
f 5/29/5 7/30/5 15/31/5 14/32/5 13/33/5
f 7/8/6 8/7/6 12/10/6 11/9/6 17/34/6 16/35/6 18/36/6 19/37/6 20/38/6 15/39/6
f 21/40/7 9/12/7 10/11/7 6/41/7 5/42/7 13/43/7 22/44/7 25/45/7 24/46/7 23/47/7
f 17/48/5 11/9/5 9/12/5 21/49/5 26/50/5
