# Blender v2.93.5 OBJ File: ''
# www.blender.org
mtllib longcube.mtl
o Cube
v 1.000000 1.000000 -1.000000
v 1.000000 -1.000000 -1.000000
v 1.000000 1.000000 1.000000
v 1.000000 -1.000000 1.000000
v -1.000000 1.000000 -1.000000
v -1.000000 -1.000000 -1.000000
v -1.000000 1.000000 1.000000
v -1.000000 -1.000000 1.000000
v 1.000000 3.000000 -1.000000
v 1.000000 3.000000 1.000000
v -1.000000 3.000000 -1.000000
v -1.000000 3.000000 1.000000
v 1.000000 5.000000 -1.000000
v 1.000000 5.000000 1.000000
v -1.000000 5.000000 -1.000000
v -1.000000 5.000000 1.000000
vt 0.997720 -0.995441
vt 0.997720 -1.990882
vt 0.997720 -1.990882
vt 0.997720 -0.995441
vt 0.002280 0.995441
vt 0.997720 0.995441
vt 0.997720 1.990881
vt 0.002280 1.990881
vt 0.002280 -1.990882
vt 0.002280 -0.995441
vt -0.993161 0.000000
vt 0.002280 0.000000
vt -0.993161 0.995441
vt 0.997720 0.000000
vt 0.997720 -1.990882
vt 0.997720 -0.995441
vt 0.997720 0.000000
vt 0.997720 0.995441
vt 0.997720 1.990881
vt 0.997720 0.000000
vt 1.993161 0.000000
vt 1.993161 0.995441
vt 0.997720 0.995441
vt 0.997720 1.990881
vn -1.0000 0.0000 0.0000
vn 0.0000 0.0000 1.0000
vn 0.0000 -1.0000 0.0000
vn 1.0000 0.0000 0.0000
vn 0.0000 0.0000 -1.0000
vn 0.0000 1.0000 0.0000
usemtl Material
s off
f 5/1/1 7/2/1 12/3/1 11/4/1
f 4/5/2 3/6/2 7/7/2 8/8/2
f 8/9/1 7/2/1 5/1/1 6/10/1
f 6/11/3 2/12/3 4/5/3 8/13/3
f 2/12/4 1/14/4 3/6/4 4/5/4
f 6/10/5 5/1/5 1/14/5 2/12/5
f 11/4/1 12/3/1 16/15/1 15/16/1
f 3/6/4 1/14/4 9/17/4 10/18/4
f 1/14/5 5/1/5 11/4/5 9/17/5
f 7/7/2 3/6/2 10/18/2 12/19/2
f 13/20/6 15/21/6 16/22/6 14/23/6
f 12/19/2 10/18/2 14/23/2 16/24/2
f 9/17/5 11/4/5 15/16/5 13/20/5
f 10/18/4 9/17/4 13/20/4 14/23/4
